# xmcd
#
# Track frame offsets: 
#        150
#        5992
#        20715
#        40530
#        56565
#        74837
#        91787
#        110390
#        128195
#        145450
#        158400
#        175625
#        190227
#        211932
#
# Disc length: 3091 seconds
#
# Revision: 1
# Processed by: cddbd v1.5.2PL0 Copyright (c) Steve Scherf et al.
# Submitted via: ExactAudioCopy v0.99pb4
#
DISCID=c00c110e
DTITLE=Jay Z - The Black Album Acapella
DYEAR=2003
DGENRE=Hip Hop
TTITLE0=Interlude (Acapella)
TTITLE1=December 4th (Acapella)
TTITLE2=What More Can I Say (Acapella)
TTITLE3=Encore (Acapella)
TTITLE4=Change Clothes (Acapella)
TTITLE5=Dirt Off Your Shoulder (Acapella)
TTITLE6=Threat (Acapella)
TTITLE7=Moment Of Clarity (Acapella)
TTITLE8=99 Problems (Acapella)
TTITLE9=Interlude (Acapella)
TTITLE10=Justify My Thug (Acapella)
TTITLE11=Lucifer (Acapella)
TTITLE12=Allure (Acapella)
TTITLE13=My 1st Song (Acapella)
EXTD=
EXTT0=
EXTT1=
EXTT2=
EXTT3=
EXTT4=
EXTT5=
EXTT6=
EXTT7=
EXTT8=
EXTT9=
EXTT10=
EXTT11=
EXTT12=
EXTT13=
PLAYORDER=
